<?xml version="1.0" encoding="UTF-8" standalone="no"?>
<!-- Created with Inkscape (http://www.inkscape.org/) -->

<svg
   width="1000"
   height="1000"
   viewBox="0 0 264.58332 264.58334"
   version="1.1"
   id="svg5"
   xmlns="http://www.w3.org/2000/svg"
   xmlns:svg="http://www.w3.org/2000/svg"
   xmlns:rdf="http://www.w3.org/1999/02/22-rdf-syntax-ns#"
   xmlns:cc="http://creativecommons.org/ns#"
   xmlns:dc="http://purl.org/dc/elements/1.1/">
  <defs
     id="defs2" />
  <metadata
     id="metadata856">
    <rdf:RDF>
      <cc:Work
         rdf:about="">
        <dc:creator>
          <cc:Agent>
            <dc:title>Inspire Studio</dc:title>
          </cc:Agent>
        </dc:creator>
        <cc:license
           rdf:resource="http://creativecommons.org/publicdomain/zero/1.0/" />
        <dc:description>Thank you for using this artwork. Feel free to visit our page https://www.pinterest.com.au/inspirestudiobox for more designs. We wish you have a wonderful day, everyday. Amitabha</dc:description>
      </cc:Work>
      <cc:License
         rdf:about="http://creativecommons.org/publicdomain/zero/1.0/">
        <cc:permits
           rdf:resource="http://creativecommons.org/ns#Reproduction" />
        <cc:permits
           rdf:resource="http://creativecommons.org/ns#Distribution" />
        <cc:permits
           rdf:resource="http://creativecommons.org/ns#DerivativeWorks" />
      </cc:License>
    </rdf:RDF>
  </metadata>
  <rect
     style="fill:#f7f7f7;fill-opacity:1;stroke:none;stroke-width:10.5833;stroke-linecap:square;stroke-miterlimit:4;stroke-dasharray:none;stroke-opacity:1;paint-order:stroke markers fill"
     id="rect50994"
     width="264.58334"
     height="264.58334"
     x="-6.7529299e-06"
     y="-6.7529299e-06" />
  <g
     id="g935"
     transform="matrix(1.0364004,0,0,1.0374822,-5.1021858,-4.672152)"
     style="stroke-width:0.964375">
    <rect
       style="fill:none;stroke:#4d4d4d;stroke-width:7.65473;stroke-miterlimit:4;stroke-dasharray:none;stroke-opacity:1;paint-order:fill markers stroke"
       id="rect50996"
       width="110.3455"
       height="63.192577"
       x="67.469032"
       y="110.32879" />
    <ellipse
       style="fill:none;fill-opacity:1;stroke:#4d4d4d;stroke-width:5.10315;stroke-miterlimit:4;stroke-dasharray:none;stroke-opacity:1;paint-order:fill markers stroke"
       id="circle50998"
       cx="122.64178"
       cy="141.92508"
       rx="13.723719"
       ry="13.680679" />
    <g
       aria-label="$"
       transform="scale(1.0015606,0.99844183)"
       id="text51002"
       style="font-weight:bold;font-size:21.6217px;line-height:1.25;-inkscape-font-specification:'sans-serif, Bold';letter-spacing:0px;word-spacing:0px;fill:#4d4d4d;stroke-width:0.255157">
      <path
         d="m 123.21082,151.94918 h -1.71031 l -0.0106,-3.1778 q -1.31969,-0.0528 -2.55491,-0.29561 -1.23522,-0.24282 -2.4071,-0.67568 v -2.76606 q 1.21411,0.62289 2.44933,0.96073 1.24578,0.32728 2.52324,0.36951 v -3.28337 l -0.3484,-0.0633 q -2.52324,-0.44342 -3.58954,-1.39359 -1.05575,-0.95017 -1.05575,-2.73439 0,-1.88978 1.28801,-2.94553 1.29857,-1.0663 3.69512,-1.16132 l 0.0106,-2.43878 h 1.71031 v 2.39655 q 1.05574,0.0845 2.11149,0.26394 1.05575,0.17947 2.12205,0.46452 v 2.6816 q -1.05575,-0.44341 -2.11149,-0.68623 -1.05575,-0.25338 -2.12205,-0.30617 v 3.02999 l 0.33784,0.0633 q 2.68159,0.4223 3.75845,1.4147 1.08742,0.98184 1.08742,2.91386 0,1.94258 -1.28801,2.98777 -1.28801,1.03463 -3.8957,1.18243 z m -1.71031,-12.00385 v -2.7555 q -0.74958,0.0422 -1.20356,0.41174 -0.44341,0.35896 -0.44341,0.9185 0,0.62289 0.41174,0.98185 0.41174,0.34839 1.23523,0.44341 z m 1.71031,3.44174 v 2.93497 q 0.9185,-0.0105 1.37247,-0.35895 0.46453,-0.3484 0.46453,-1.04519 0,-0.71791 -0.4223,-1.0663 -0.4223,-0.35896 -1.4147,-0.46453 z"
         id="path930"
         style="stroke-width:0.255157" />
    </g>
    <path
       style="fill:none;stroke:#4d4d4d;stroke-width:5.10315;stroke-linecap:butt;stroke-linejoin:miter;stroke-miterlimit:4;stroke-dasharray:none;stroke-opacity:1"
       d="m 90.891909,119.86112 c -2.369271,5.99599 -7.137812,10.74161 -13.163182,13.09947 l -8.58e-4,17.92865 c 6.025869,2.35742 10.795533,7.10406 13.164841,13.1019 l 63.49745,1e-4 c 2.36925,-5.99779 7.13883,-10.74442 13.16561,-13.10228 v -17.92769 c -6.02678,-2.35787 -10.79636,-7.1045 -13.16561,-13.10229 z"
       id="path51004" />
    <path
       style="fill:none;stroke:#0573e1;stroke-width:6.37893;stroke-linecap:butt;stroke-linejoin:miter;stroke-miterlimit:4;stroke-dasharray:none;stroke-opacity:1"
       d="M 188.3246,163.02836 V 99.835763 H 77.979074"
       id="path51006" />
    <path
       style="fill:none;stroke:#0573e1;stroke-width:6.37893;stroke-linecap:butt;stroke-linejoin:miter;stroke-miterlimit:4;stroke-dasharray:none;stroke-opacity:1"
       d="M 198.30549,153.06449 V 89.871899 H 87.959968"
       id="path1008" />
  </g>
</svg>
