<?xml version='1.0' encoding='utf-8'?>
<svg xmlns="http://www.w3.org/2000/svg" enable-background="new 0 0 100 100" version="1.1" viewBox="0 0 100 100">
<path d="m15.811 80.514c0.271 1.814 1.846 3.176 3.679 3.176 0.173 0 0.348-0.012 0.521-0.035l22.819-3.188h-27.023l4e-3 0.047z" fill="none"/>
<path d="m83.415 25.086l-19.979 2.792c0.063 0.188 0.123 0.377 0.184 0.567h18.72l2.52 46.151 4.14-0.578c0.984-0.139 1.857-0.651 2.458-1.445 0.592-0.784 0.849-1.752 0.722-2.725l-8.765-44.762z" fill="none"/>
<path d="m94.936 69.426l-9.291-47.467-23.299 3.255c-3.359-6.956-9.9-11.692-17.388-11.692-8.597 0-15.942 6.245-18.661 14.924h-18.737l-2.56 46.902c0 2.826 2.292 5.119 5.12 5.119h2.888l0.027 0.322 8e-3 0.076c0.448 3.201 3.218 5.613 6.446 5.613 0.301 0 0.606-0.021 0.907-0.063l42.59-5.949h16.793c2.066 0 3.837-1.231 4.646-2.993l4.962-0.693c1.723-0.242 3.25-1.139 4.299-2.527 1.046-1.39 1.492-3.105 1.25-4.827zm-60.427-49.864c2.934-2.47 6.541-3.949 10.448-3.949 3.905 0 7.51 1.478 10.443 3.946 4.645 3.459 7.891 9.142 8.527 15.701 1.026 0.532 1.731 1.595 1.731 2.831 0 1.337-0.821 2.48-1.988 2.958-0.372 0.152-0.778 0.238-1.207 0.238-0.524 0-1.019-0.129-1.454-0.353-1.033-0.53-1.742-1.603-1.742-2.843 0-1.056 0.517-1.987 1.308-2.569-0.361-3.613-1.628-6.909-3.536-9.567l-17.827 2.49h-7.829c-1.072 2.127-1.789 4.52-2.044 7.08 0.788 0.582 1.302 1.511 1.302 2.566 0 1.24-0.708 2.313-1.74 2.843-0.438 0.224-0.93 0.353-1.456 0.353-0.428 0-0.835-0.086-1.207-0.238-1.167-0.477-1.989-1.62-1.989-2.958 0-1.237 0.708-2.302 1.737-2.833 0.643-6.561 3.886-12.239 8.523-15.696zm-14.498 64.092c-0.173 0.023-0.348 0.035-0.521 0.035-1.833 0-3.408-1.361-3.679-3.176l-4e-3 -0.048h27.023l-22.819 3.189zm71.447-11.082c-0.601 0.793-1.474 1.307-2.458 1.445l-4.143 0.578-2.52-46.152h-18.72c-0.06-0.19-0.119-0.38-0.185-0.567l19.98-2.792 8.764 44.763c0.131 0.973-0.126 1.94-0.718 2.725z"/>
<path d="m26.564 37.548l4e-3 0.07c0.027 0.522 0.457 0.932 0.977 0.932s0.949-0.409 0.976-0.932l7e-3 -0.127c0.068-10.392 7.412-18.821 16.43-18.821 9.028 0 16.377 8.45 16.429 18.858l6e-3 0.091c0.027 0.522 0.457 0.931 0.977 0.931 0.521 0 0.949-0.409 0.979-0.932l8e-3 -0.144c-0.106-11.487-8.334-20.771-18.396-20.771-10.104 1e-3 -18.355 9.351-18.397 20.845z"/>
</svg>